<svg width="815" height="226" viewBox="0 0 815 226" fill="none" xmlns="http://www.w3.org/2000/svg">
<path d="M252.1 173.77C242.07 173.77 233.338 171.823 225.904 167.929C218.47 163.917 212.688 158.371 208.558 151.291C204.546 144.211 202.54 136.069 202.54 126.865C202.54 117.543 204.546 109.401 208.558 102.439C212.688 95.359 218.411 89.872 225.727 85.978C233.043 81.966 241.539 79.96 251.215 79.96C260.537 79.96 268.62 81.848 275.464 85.624C282.308 89.4 287.618 94.651 291.394 101.377C295.17 108.103 297.058 116.009 297.058 125.095C297.058 126.983 296.999 128.753 296.881 130.405C296.763 131.939 296.586 133.414 296.35 134.83H218.116V117.307H274.933L270.331 120.493C270.331 113.177 268.561 107.808 265.021 104.386C261.599 100.846 256.879 99.076 250.861 99.076C243.899 99.076 238.471 101.436 234.577 106.156C230.801 110.876 228.913 117.956 228.913 127.396C228.913 136.6 230.801 143.444 234.577 147.928C238.471 152.412 244.253 154.654 251.923 154.654C256.171 154.654 259.829 153.946 262.897 152.53C265.965 151.114 268.266 148.813 269.8 145.627H294.757C291.807 154.359 286.733 161.262 279.535 166.336C272.455 171.292 263.31 173.77 252.1 173.77ZM327.957 172L292.38 81.73H320.877L348.666 165.982H333.798L361.41 81.73H389.199L353.622 172H327.957Z" fill="black"/>
<path d="M383.407 172L412.789 44.56H454.561L461.464 167.398H445.534L509.431 44.56H553.327L523.945 172H497.041L524.653 52.171H529.255L467.128 172H438.985L432.259 53.233H436.684L409.249 172H383.407ZM585.993 173.77C577.143 173.77 569.355 172 562.629 168.46C556.021 164.92 550.888 160.023 547.23 153.769C543.572 147.397 541.743 140.022 541.743 131.644C541.743 124.328 543.1 117.543 545.814 111.289C548.646 104.917 552.54 99.43 557.496 94.828C562.452 90.108 568.234 86.45 574.842 83.854C581.45 81.258 588.648 79.96 596.436 79.96C605.404 79.96 613.192 81.73 619.8 85.27C626.526 88.692 631.718 93.53 635.376 99.784C639.152 105.92 641.04 113.177 641.04 121.555C641.04 128.871 639.624 135.715 636.792 142.087C633.96 148.459 630.007 154.005 624.933 158.725C619.977 163.445 614.136 167.162 607.41 169.876C600.802 172.472 593.663 173.77 585.993 173.77ZM587.94 152.884C591.48 152.884 594.784 152.117 597.852 150.583C600.92 148.931 603.575 146.689 605.817 143.857C608.177 141.025 610.006 137.78 611.304 134.122C612.72 130.346 613.428 126.275 613.428 121.909C613.428 115.301 611.776 110.168 608.472 106.51C605.168 102.734 600.684 100.846 595.02 100.846C591.362 100.846 587.94 101.613 584.754 103.147C581.686 104.681 578.972 106.805 576.612 109.519C574.37 112.233 572.6 115.419 571.302 119.077C570.004 122.735 569.355 126.747 569.355 131.113C569.355 137.721 571.007 143.031 574.311 147.043C577.615 150.937 582.158 152.884 587.94 152.884ZM681.121 174.301C672.625 174.301 665.191 173.062 658.819 170.584C652.447 167.988 647.491 164.389 643.951 159.787C640.411 155.185 638.7 149.875 638.818 143.857H662.536C662.536 146.453 663.303 148.695 664.837 150.583C666.371 152.471 668.613 153.946 671.563 155.008C674.513 155.952 678.053 156.424 682.183 156.424C687.375 156.424 691.269 155.657 693.865 154.123C696.579 152.589 697.936 150.347 697.936 147.397C697.936 145.391 697.228 143.739 695.812 142.441C694.514 141.143 692.39 139.963 689.44 138.901L675.811 134.299C666.607 131.231 660.058 127.809 656.164 124.033C652.388 120.139 650.5 115.301 650.5 109.519C650.5 103.501 652.152 98.309 655.456 93.943C658.76 89.459 663.362 86.037 669.262 83.677C675.162 81.199 682.065 79.96 689.971 79.96C697.759 79.96 704.544 81.14 710.326 83.5C716.226 85.742 720.828 88.928 724.132 93.058C727.436 97.07 729.029 101.731 728.911 107.041H705.193C705.311 105.035 704.721 103.324 703.423 101.908C702.125 100.492 700.237 99.43 697.759 98.722C695.281 98.014 692.272 97.66 688.732 97.66C683.894 97.66 680.295 98.309 677.935 99.607C675.575 100.905 674.395 102.852 674.395 105.448C674.395 107.336 675.162 108.87 676.696 110.05C678.348 111.23 681.239 112.528 685.369 113.944L700.414 119.077C707.494 121.437 712.804 124.741 716.344 128.989C720.002 133.119 721.831 138.193 721.831 144.211C721.831 150.229 720.12 155.539 716.698 160.141C713.276 164.625 708.497 168.106 702.361 170.584C696.343 173.062 689.263 174.301 681.121 174.301ZM766.385 174.301C757.889 174.301 750.455 173.062 744.083 170.584C737.711 167.988 732.755 164.389 729.215 159.787C725.675 155.185 723.964 149.875 724.082 143.857H747.8C747.8 146.453 748.567 148.695 750.101 150.583C751.635 152.471 753.877 153.946 756.827 155.008C759.777 155.952 763.317 156.424 767.447 156.424C772.639 156.424 776.533 155.657 779.129 154.123C781.843 152.589 783.2 150.347 783.2 147.397C783.2 145.391 782.492 143.739 781.076 142.441C779.778 141.143 777.654 139.963 774.704 138.901L761.075 134.299C751.871 131.231 745.322 127.809 741.428 124.033C737.652 120.139 735.764 115.301 735.764 109.519C735.764 103.501 737.416 98.309 740.72 93.943C744.024 89.459 748.626 86.037 754.526 83.677C760.426 81.199 767.329 79.96 775.235 79.96C783.023 79.96 789.808 81.14 795.59 83.5C801.49 85.742 806.092 88.928 809.396 93.058C812.7 97.07 814.293 101.731 814.175 107.041H790.457C790.575 105.035 789.985 103.324 788.687 101.908C787.389 100.492 785.501 99.43 783.023 98.722C780.545 98.014 777.536 97.66 773.996 97.66C769.158 97.66 765.559 98.309 763.199 99.607C760.839 100.905 759.659 102.852 759.659 105.448C759.659 107.336 760.426 108.87 761.96 110.05C763.612 111.23 766.503 112.528 770.633 113.944L785.678 119.077C792.758 121.437 798.068 124.741 801.608 128.989C805.266 133.119 807.095 138.193 807.095 144.211C807.095 150.229 805.384 155.539 801.962 160.141C798.54 164.625 793.761 168.106 787.625 170.584C781.607 173.062 774.527 174.301 766.385 174.301Z" fill="#4CB249"/>
<path d="M173.063 57.8994C174.534 59.9777 175.928 62.1274 177.244 64.3486C186.783 79.9219 191.553 98.3176 191.553 119.536C191.553 140.755 186.783 159.346 177.244 175.309C167.705 191.076 154.371 203.341 137.24 212.101C120.304 220.86 100.449 225.24 77.6729 225.24H0V152.641H37.9609V194.872H77.3809C93.3434 194.872 106.97 191.66 118.261 185.236C129.551 178.812 138.116 169.857 143.956 158.372C149.991 146.887 153.009 133.747 153.009 118.952C153.009 110.569 152.013 102.764 150.022 95.5361L126.627 118.702C127.441 120.541 127.896 122.585 127.896 124.74C127.896 132.748 121.628 139.24 113.896 139.24C111.592 139.24 109.418 138.663 107.501 137.642L97.5391 147.507C98.4086 149.395 98.8965 151.509 98.8965 153.74C98.8965 161.748 92.6285 168.24 84.8965 168.24C77.1645 168.24 70.8965 161.748 70.8965 153.74C70.8965 150.738 71.7762 147.948 73.2852 145.634L69.4404 141.805C67.1385 143.343 64.3726 144.24 61.3965 144.24C53.3884 144.24 46.8965 137.748 46.8965 129.74C46.8965 121.732 53.3884 115.24 61.3965 115.24C63.1939 115.24 64.9146 115.568 66.5029 116.166L85.167 97.6836C84.3509 95.8698 83.8965 93.8581 83.8965 91.7402C83.8965 83.7321 90.3884 77.2402 98.3965 77.2402C106.405 77.2402 112.896 83.7321 112.896 91.7402C112.896 99.7484 106.405 106.24 98.3965 106.24C96.16 106.24 94.042 105.733 92.1504 104.829L74.084 122.718C75.2381 124.798 75.8965 127.192 75.8965 129.74C75.8965 131.081 75.7135 132.378 75.373 133.61L81.4658 139.679C82.5636 139.392 83.7129 139.24 84.8965 139.24C86.5808 139.24 88.1956 139.549 89.6914 140.113L100.604 129.306C100.145 127.87 99.8965 126.335 99.8965 124.74C99.8965 116.732 106.164 110.24 113.896 110.24C115.658 110.24 117.343 110.578 118.896 111.193L167.322 63.2402L167.698 63.6201L173.063 57.8994ZM77.3809 15C100.351 15 120.402 19.2834 137.532 27.8486C147.314 32.7393 155.826 38.804 163.068 46.043L138.684 72.0498C133.338 64.9132 126.532 59.1326 118.261 54.7119C107.165 48.4826 93.538 45.3682 77.3809 45.3682H37.9609V137.24H0V15H77.3809Z" fill="url(#paint0_linear_8_207)"/>
<defs>
<linearGradient id="paint0_linear_8_207" x1="95.7764" y1="15" x2="95.7764" y2="225.24" gradientUnits="userSpaceOnUse">
<stop stop-color="#35A446"/>
<stop offset="1" stop-color="#067A40"/>
</linearGradient>
</defs>
</svg>
